<svg width="300" height="275" xmlns="http://www.w3.org/2000/svg">
 <!-- Created with Method Draw - http://github.com/duopixel/Method-Draw/ -->

 <g>
  <title>background</title>
  <rect fill="none" id="canvas_background" height="277" width="302" y="-1" x="-1"/>
  <g display="none" id="canvasGrid">
   <rect fill="url(#gridpattern)" stroke-width="0" y="0" x="0" height="100%" width="100%" id="svg_1"/>
  </g>
 </g>
 <g>
  <title>Layer 1</title>
  <path id="svg_14" d="m210.923798,166.958832c0,5.799164 -43.426849,10.501221 -97.000153,10.501221m97.000153,-10.501221l0,0c0,5.799164 -43.426849,10.501221 -97.000153,10.501221c-53.572388,0 -96.999817,-4.702057 -96.999817,-10.501221m0,0l0,0c0,-5.799377 43.427429,-10.501373 96.999817,-10.501373c53.573303,0 97.000153,4.701996 97.000153,10.501373l0,42.00412c0,5.799896 -43.426849,10.501404 -97.000153,10.501404c-53.572388,0 -96.999817,-4.701508 -96.999817,-10.501404l0,-42.00412z" stroke-width="1.5" stroke="#000" fill="#fff"/>
  <path id="svg_13" d="m210.923798,119.958832c0,5.799179 -43.426849,10.501221 -97.000153,10.501221m97.000153,-10.501221l0,0c0,5.799179 -43.426849,10.501221 -97.000153,10.501221c-53.572388,0 -96.999817,-4.702042 -96.999817,-10.501221m0,0l0,0c0,-5.799377 43.427429,-10.501373 96.999817,-10.501373c53.573303,0 97.000153,4.701996 97.000153,10.501373l0,42.00412c0,5.799896 -43.426849,10.501404 -97.000153,10.501404c-53.572388,0 -96.999817,-4.701508 -96.999817,-10.501404l0,-42.00412z" stroke-width="1.5" stroke="#000" fill="#000000"/>
  <path id="svg_15" d="m209.923798,69.958832c0,5.799164 -43.426849,10.501221 -97.000153,10.501221m97.000153,-10.501221l0,0c0,5.799164 -43.426849,10.501221 -97.000153,10.501221c-53.572388,0 -96.999817,-4.702057 -96.999817,-10.501221m0,0l0,0c0,-5.799377 43.427429,-10.501373 96.999817,-10.501373c53.573303,0 97.000153,4.701996 97.000153,10.501373l0,42.00412c0,5.799896 -43.426849,10.501404 -97.000153,10.501404c-53.572388,0 -96.999817,-4.701508 -96.999817,-10.501404l0,-42.00412z" stroke-width="1.5" stroke="#000" fill="#fff"/>
  <path id="svg_16" d="m209.923798,22.958832c0,5.799179 -43.426849,10.501221 -97.000153,10.501221m97.000153,-10.501221l0,0c0,5.799179 -43.426849,10.501221 -97.000153,10.501221c-53.572388,0 -96.999817,-4.702042 -96.999817,-10.501221m0,0l0,0c0,-5.799377 43.427429,-10.501374 96.999817,-10.501374c53.573303,0 97.000153,4.701997 97.000153,10.501374l0,42.00412c0,5.799896 -43.426849,10.501404 -97.000153,10.501404c-53.572388,0 -96.999817,-4.701508 -96.999817,-10.501404l0,-42.00412z" stroke-width="1.5" stroke="#000" fill="#000000"/>
  <ellipse ry="63.5" rx="76" id="svg_17" cy="189.149994" cx="206.5" fill-opacity="null" stroke-opacity="null" stroke-width="1.5" stroke="#000" fill="#fff"/>
  <text font-weight="bold" xml:space="preserve" text-anchor="start" font-family="Helvetica, Arial, sans-serif" font-size="24" id="svg_19" y="195.649994" x="162.5" fill-opacity="null" stroke-opacity="null" stroke-width="0" stroke="#000" fill="#000000">MySQL</text>
 </g>
</svg>