<svg width="900.0000000000001" height="900.0000000000001" xmlns="http://www.w3.org/2000/svg">
 <!-- Created with Method Draw - http://github.com/duopixel/Method-Draw/ -->
 <g>
  <title>background</title>
  <rect fill="none" id="canvas_background" height="902" width="902" y="-1" x="-1"/>
 </g>
 <g>
  <title>Layer 1</title>
  <g id="svg_10">
   <path id="svg_2" d="m171.957779,303.319733c0,-0.636322 20.939682,-27.999451 20.622375,-28.12674c0.317307,0.127289 41.56218,-22.781372 41.244888,-22.90863c0.317291,0.127258 42.196655,-13.872437 41.879333,-13.999786c0.317322,0.12735 56.791016,-11.963379 56.473724,-12.090668c0.317291,0.127289 64.405426,-6.236237 64.088257,-6.363495c0.317291,0.127258 63.136353,-1.781769 63.770935,-1.781769c0.634491,0 60.280945,1.272705 59.963623,1.145416c0.317322,0.127289 35.851318,5.218079 35.533997,5.09082c0.317322,0.127258 48.542114,7.127136 48.542114,7.127136c0,0 44.417603,12.72702 44.10022,12.599731c0.317383,0.127289 34.582275,13.490692 34.265015,13.363403c0.317261,0.127289 30.774902,19.217804 30.457764,19.090576c0.317139,0.127228 14.2771,26.217682 13.959717,26.090454c0.317383,0.127228 -2.855347,28.763031 -3.48999,28.12674c-0.634399,-0.636414 -26.650513,20.36322 -26.967651,20.235931c0.317139,0.127289 -29.505981,15.39975 -29.823364,15.272461c0.317383,0.127289 -46.003784,16.036102 -46.321045,15.908783c0.317261,0.127319 -48.541992,9.672577 -48.859314,9.545319c0.317322,0.127258 -56.156433,3.945404 -56.473694,3.818054c0.317261,0.12735 -59.329254,3.309082 -59.646454,3.181732c0.317322,0.12735 -52.349243,0.12735 -51.714752,-0.509064c0.634583,-0.636292 -49.493835,-5.727173 -49.811096,-5.854401c0.317261,0.127228 -47.27298,-7.508972 -47.59021,-7.63623c0.31723,0.127258 -39.658539,-10.690704 -39.9758,-10.817932c0.317261,0.127228 -39.658508,-14.508881 -39.975754,-14.636108c0.317245,0.127228 -35.851334,-22.145081 -36.16864,-22.272308c0.317307,0.127228 -16.180618,-20.872345 -16.497925,-20.999603" fill-opacity="null" stroke-opacity="null" stroke-width="12" stroke="#000" fill="none"/>
   <path id="svg_3" d="m171.323181,334.500946l0.317307,101.689087l28.554092,29.272095l31.726822,13.363403l36.803116,14.636078l40.610321,7.63623l48.224762,8.272614l59.646423,5.090729l46.321136,2.545471l20.939667,-29.908508l41.244904,-26.090485l39.975769,-12.726959l33.630493,-4.454468l38.706665,0.636322l27.919678,6.363464l27.919556,13.999817c0.317261,0.127228 4.759033,1.399963 5.393555,1.399963c0.634521,0 29.188721,-33.090271 28.87146,-33.217621c0.317261,0.12735 -0.951782,-95.961792 -1.269165,-96.08902c0.317383,0.127228 -26.333252,31.308472 -26.650513,31.181244c0.317261,0.127228 -37.754883,16.672363 -38.072144,16.545105c0.317261,0.127258 -37.120361,12.217926 -37.437622,12.090668c0.317261,0.127258 -52.983765,10.308899 -53.301086,10.181641c0.317322,0.127258 -58.694641,7.763458 -59.011902,7.6362c0.317261,0.127258 -63.770874,1.399963 -64.088165,1.272736c0.317291,0.127228 -58.060089,-0.509064 -58.377411,-0.636414c0.317322,0.12735 -58.060028,-6.236145 -58.377289,-6.363495c0.317322,0.12735 -57.425507,-10.690704 -57.425507,-11.326996c0,-0.636414 -41.244858,-13.999817 -41.562149,-14.127045c0.317291,0.127228 -32.044067,-18.963287 -32.361374,-19.090576c0.317307,0.127289 -22.526016,-17.690552 -22.843262,-17.817841" fill-opacity="null" stroke-opacity="null" stroke-width="12" stroke="#000" fill="none"/>
   <path id="svg_4" d="m171.323181,456.044128c0.000107,15.909271 0,99.270874 0.634598,98.634521c0.634491,-0.636414 19.670593,23.545044 19.353302,23.417725c0.317291,0.127319 23.160553,16.672485 23.795151,16.672485c0.634491,0 26.015976,10.817932 25.698685,10.690674c0.317291,0.127258 30.140488,9.036194 29.823227,8.908936c0.317261,0.127258 41.562073,7.127136 41.244812,6.999817c0.317261,0.127319 40.927643,5.218079 40.610352,5.09082c0.317291,0.127258 38.389496,5.854431 38.072205,5.727234c0.317291,0.127197 36.485809,1.399902 36.168518,1.272705c0.317291,0.127197 -0.3172,-39.962952 -0.634491,-40.090271c0.317291,0.127319 9.200806,-27.23584 8.883514,-27.363098c0.317291,0.127258 14.277039,-31.053955 13.959747,-31.181213c0.317291,0.127258 -68.212585,-1.145325 -68.529877,-1.272705c0.317291,0.12738 -50.445648,-6.236267 -51.0802,-6.236267c-0.634521,0 -43.148438,-7.636169 -43.465759,-7.763428c0.317322,0.127258 -44.734756,-15.145142 -45.052048,-15.272491c0.317291,0.12735 -39.023956,-16.417786 -39.341248,-16.545135c0.317291,0.12735 -23.160553,-22.144958 -23.477859,-22.272308" fill-opacity="null" stroke-opacity="null" stroke-width="12" stroke="#000" fill="none"/>
   <path id="svg_5" d="m171.957779,577.58728l-0.951843,94.689209l20.939682,27.363098l26.015976,13.999756l32.361374,13.999695l28.554077,8.272644l38.072205,7.636169l35.534058,6.363525l35.534027,3.818115l32.361359,1.272644l33.630463,-0.636292l32.361359,0.636292l-24.746948,-24.817627l-19.036102,-27.36322l-11.421692,-30.5448l-5.076233,-19.72699l-43.783051,-1.272644l-36.168518,-4.454407l-39.9758,-5.090881l-41.879425,-10.817993l-31.092255,-12.090637l-29.823242,-13.363403l-18.401505,-15.272522" fill-opacity="null" stroke-opacity="null" stroke-width="12" stroke="#000" fill="none"/>
   <path id="svg_6" d="m462.575378,559.133118l-11.104401,34.235657l-0.634491,30.544922l4.441742,27.363159l5.710846,22.90863l15.863342,23.545044l15.228943,22.90863l24.112366,23.545044l21.574219,11.454346l28.554199,12.72699l31.726746,3.181824l36.803162,-0.636414l38.072144,-13.999695l32.36145,-19.090576l21.574097,-22.272278l13.959839,-24.817749l13.959839,-36.908447l4.441772,-34.999268l-3.172729,-37.544861l-17.132568,-40.72644l-20.939575,-26.090454l-25.38147,-22.908569l-29.823242,-17.817871l-41.244873,-8.908905l-28.554077,0l-36.803101,8.272491l-42.513977,23.545044l-21.574219,19.090576l-19.670685,24.181274" fill-opacity="null" stroke-opacity="null" stroke-width="12" stroke="#000" fill="none"/>
   <path id="svg_7" d="m582.502747,667.312988l-22.526062,-39.581116l-5.076233,5.727173l-1.903625,9.545227l-3.807251,10.817932l-8.883484,-12.090637c0.317322,0.127319 -2.220886,-12.599731 -2.220886,-13.236084c0,-0.636414 4.441772,-19.726929 4.441772,-19.726929c0,0 2.538208,-10.817993 2.220825,-10.945313c0.317383,0.127319 -11.738831,-22.144958 -12.056152,-22.272339c0.317322,0.12738 -17.449707,-35.508301 -17.449707,-35.508301" fill-opacity="null" stroke-opacity="null" stroke-width="12" stroke="#000" fill="none"/>
   <path id="svg_8" d="m511.434662,534.951721l6.662628,-3.30896l9.518127,5.727112l19.036011,7.63623l19.670715,3.818054c0.317261,0.127319 13.642578,5.854492 13.642578,6.490845c0,0.636414 17.132385,12.090637 16.815063,11.963379c0.317322,0.127258 14.277222,17.945129 13.959839,17.817871c0.317383,0.127258 13.642456,23.672302 13.325317,23.545044c0.317139,0.127258 14.2771,28.126709 13.959717,27.999451c0.317383,0.127258 4.759033,8.399902 5.393555,8.399902c0.634644,0 15.863403,6.999756 15.546143,6.872559c0.317261,0.127197 21.256958,12.854309 20.939697,12.727051c0.317261,0.127258 9.200806,5.218018 8.883545,5.09082c0.317261,0.127197 -16.180664,4.581665 -16.497925,4.454407c0.317261,0.127258 -9.200684,2.672729 -9.518066,2.545471c0.317383,0.127258 -2.855469,6.490723 -3.172607,6.363464c0.317139,0.127258 14.911499,12.854309 14.59436,12.727112c0.317139,0.127197 16.180542,8.399841 15.863281,8.272522c0.317261,0.127319 13.642578,7.127136 13.325317,6.999878" fill-opacity="null" stroke-opacity="null" stroke-width="12" stroke="#000" fill="none"/>
   <path id="svg_9" d="m559.024902,562.31488c1.269043,1.908997 5.710815,5.727173 5.393555,5.599854l-5.393555,-5.599854z" fill-opacity="null" stroke-opacity="null" stroke-width="12" stroke="#000" fill="none"/>
  </g>
 </g>
</svg>